<mxfile host="app.diagrams.net" modified="2023-03-15T08:01:25.974Z" agent="5.0 (Windows NT 10.0; Win64; x64) AppleWebKit/537.36 (KHTML, like Gecko) Chrome/111.0.0.0 Safari/537.36" etag="Fn6N1zgiQ_7sNKsJceI3" version="21.0.6" type="github" pages="5">
  <diagram id="72dNCrbUw9OVhxTshWbL" name="第 2 页">
    <mxGraphModel dx="794" dy="430" grid="1" gridSize="10" guides="1" tooltips="1" connect="1" arrows="1" fold="1" page="1" pageScale="1" pageWidth="1169" pageHeight="827" math="0" shadow="0">
      <root>
        <mxCell id="0" />
        <mxCell id="1" parent="0" />
        <mxCell id="SpY3q293IQmlEWs57RyB-1" value="图书管理系统" style="rounded=0;whiteSpace=wrap;html=1;" parent="1" vertex="1">
          <mxGeometry x="390" y="50" width="260" height="50" as="geometry" />
        </mxCell>
        <mxCell id="SpY3q293IQmlEWs57RyB-2" value="图书入库管理" style="rounded=0;whiteSpace=wrap;html=1;" parent="1" vertex="1">
          <mxGeometry x="180" y="150" width="120" height="40" as="geometry" />
        </mxCell>
        <mxCell id="SpY3q293IQmlEWs57RyB-3" value="借阅证管理" style="rounded=0;whiteSpace=wrap;html=1;" parent="1" vertex="1">
          <mxGeometry x="680" y="150" width="120" height="40" as="geometry" />
        </mxCell>
        <mxCell id="SpY3q293IQmlEWs57RyB-4" value="借阅管理" style="rounded=0;whiteSpace=wrap;html=1;" parent="1" vertex="1">
          <mxGeometry x="350" y="150" width="120" height="40" as="geometry" />
        </mxCell>
        <mxCell id="SpY3q293IQmlEWs57RyB-5" value="批量入库" style="rounded=0;whiteSpace=wrap;html=1;rotation=90;" parent="1" vertex="1">
          <mxGeometry x="120" y="300" width="120" height="40" as="geometry" />
        </mxCell>
        <mxCell id="SpY3q293IQmlEWs57RyB-6" value="查询管理" style="rounded=0;whiteSpace=wrap;html=1;" parent="1" vertex="1">
          <mxGeometry x="525" y="150" width="120" height="40" as="geometry" />
        </mxCell>
        <mxCell id="SpY3q293IQmlEWs57RyB-7" value="单本入库" style="rounded=0;whiteSpace=wrap;html=1;rotation=90;" parent="1" vertex="1">
          <mxGeometry x="210" y="300" width="120" height="40" as="geometry" />
        </mxCell>
        <mxCell id="SpY3q293IQmlEWs57RyB-8" value="借书" style="rounded=0;whiteSpace=wrap;html=1;rotation=90;" parent="1" vertex="1">
          <mxGeometry x="310" y="300" width="120" height="40" as="geometry" />
        </mxCell>
        <mxCell id="SpY3q293IQmlEWs57RyB-9" value="还书" style="rounded=0;whiteSpace=wrap;html=1;rotation=90;" parent="1" vertex="1">
          <mxGeometry x="380" y="300" width="120" height="40" as="geometry" />
        </mxCell>
        <mxCell id="SpY3q293IQmlEWs57RyB-10" value="类别查询" style="rounded=0;whiteSpace=wrap;html=1;rotation=90;" parent="1" vertex="1">
          <mxGeometry x="480" y="300" width="120" height="40" as="geometry" />
        </mxCell>
        <mxCell id="SpY3q293IQmlEWs57RyB-11" value="批量入库" style="rounded=0;whiteSpace=wrap;html=1;rotation=90;" parent="1" vertex="1">
          <mxGeometry x="560" y="300" width="120" height="40" as="geometry" />
        </mxCell>
        <mxCell id="SpY3q293IQmlEWs57RyB-12" value="删除" style="rounded=0;whiteSpace=wrap;html=1;rotation=90;" parent="1" vertex="1">
          <mxGeometry x="730" y="300" width="120" height="40" as="geometry" />
        </mxCell>
        <mxCell id="SpY3q293IQmlEWs57RyB-13" value="添加" style="rounded=0;whiteSpace=wrap;html=1;rotation=90;" parent="1" vertex="1">
          <mxGeometry x="645" y="300" width="120" height="40" as="geometry" />
        </mxCell>
        <mxCell id="SpY3q293IQmlEWs57RyB-14" value="" style="endArrow=none;html=1;rounded=0;entryX=0.5;entryY=1;entryDx=0;entryDy=0;" parent="1" target="SpY3q293IQmlEWs57RyB-1" edge="1">
          <mxGeometry width="50" height="50" relative="1" as="geometry">
            <mxPoint x="520" y="120" as="sourcePoint" />
            <mxPoint x="610" y="280" as="targetPoint" />
          </mxGeometry>
        </mxCell>
        <mxCell id="SpY3q293IQmlEWs57RyB-15" value="" style="endArrow=none;html=1;rounded=0;" parent="1" edge="1">
          <mxGeometry width="50" height="50" relative="1" as="geometry">
            <mxPoint x="220" y="120" as="sourcePoint" />
            <mxPoint x="750" y="120" as="targetPoint" />
          </mxGeometry>
        </mxCell>
        <mxCell id="SpY3q293IQmlEWs57RyB-16" value="" style="endArrow=none;html=1;rounded=0;exitX=0.363;exitY=-0.015;exitDx=0;exitDy=0;exitPerimeter=0;" parent="1" source="SpY3q293IQmlEWs57RyB-2" edge="1">
          <mxGeometry width="50" height="50" relative="1" as="geometry">
            <mxPoint x="560" y="330" as="sourcePoint" />
            <mxPoint x="220" y="120" as="targetPoint" />
            <Array as="points">
              <mxPoint x="220" y="149" />
            </Array>
          </mxGeometry>
        </mxCell>
        <mxCell id="SpY3q293IQmlEWs57RyB-17" value="" style="endArrow=none;html=1;rounded=0;exitX=0.363;exitY=-0.015;exitDx=0;exitDy=0;exitPerimeter=0;" parent="1" edge="1">
          <mxGeometry width="50" height="50" relative="1" as="geometry">
            <mxPoint x="753.56" y="149.99999999999997" as="sourcePoint" />
            <mxPoint x="750" y="120.6" as="targetPoint" />
            <Array as="points">
              <mxPoint x="750" y="149.6" />
            </Array>
          </mxGeometry>
        </mxCell>
        <mxCell id="SpY3q293IQmlEWs57RyB-18" value="" style="endArrow=none;html=1;rounded=0;exitX=0.363;exitY=-0.015;exitDx=0;exitDy=0;exitPerimeter=0;" parent="1" edge="1">
          <mxGeometry width="50" height="50" relative="1" as="geometry">
            <mxPoint x="588.56" y="149.99999999999997" as="sourcePoint" />
            <mxPoint x="585" y="120.6" as="targetPoint" />
            <Array as="points">
              <mxPoint x="585" y="149.6" />
            </Array>
          </mxGeometry>
        </mxCell>
        <mxCell id="SpY3q293IQmlEWs57RyB-19" value="" style="endArrow=none;html=1;rounded=0;exitX=0.363;exitY=-0.015;exitDx=0;exitDy=0;exitPerimeter=0;" parent="1" edge="1">
          <mxGeometry width="50" height="50" relative="1" as="geometry">
            <mxPoint x="403.55999999999995" y="149.99999999999997" as="sourcePoint" />
            <mxPoint x="400" y="120.6" as="targetPoint" />
            <Array as="points">
              <mxPoint x="400" y="149.6" />
            </Array>
          </mxGeometry>
        </mxCell>
        <mxCell id="SpY3q293IQmlEWs57RyB-20" value="" style="endArrow=none;html=1;rounded=0;entryX=0.5;entryY=1;entryDx=0;entryDy=0;" parent="1" target="SpY3q293IQmlEWs57RyB-2" edge="1">
          <mxGeometry width="50" height="50" relative="1" as="geometry">
            <mxPoint x="240" y="240" as="sourcePoint" />
            <mxPoint x="280" y="190" as="targetPoint" />
          </mxGeometry>
        </mxCell>
        <mxCell id="SpY3q293IQmlEWs57RyB-21" value="" style="endArrow=none;html=1;rounded=0;entryX=0.5;entryY=1;entryDx=0;entryDy=0;" parent="1" edge="1">
          <mxGeometry x="0.2" y="-370" width="50" height="50" relative="1" as="geometry">
            <mxPoint x="739.5" y="240" as="sourcePoint" />
            <mxPoint x="739.5" y="190" as="targetPoint" />
            <mxPoint as="offset" />
          </mxGeometry>
        </mxCell>
        <mxCell id="SpY3q293IQmlEWs57RyB-22" value="" style="endArrow=none;html=1;rounded=0;" parent="1" edge="1">
          <mxGeometry width="50" height="50" relative="1" as="geometry">
            <mxPoint x="280" y="240" as="sourcePoint" />
            <mxPoint x="180" y="240" as="targetPoint" />
          </mxGeometry>
        </mxCell>
        <mxCell id="SpY3q293IQmlEWs57RyB-23" value="" style="endArrow=none;html=1;rounded=0;entryX=0.5;entryY=1;entryDx=0;entryDy=0;" parent="1" edge="1">
          <mxGeometry x="1" y="-260" width="50" height="50" relative="1" as="geometry">
            <mxPoint x="585" y="240" as="sourcePoint" />
            <mxPoint x="585" y="190" as="targetPoint" />
            <mxPoint as="offset" />
          </mxGeometry>
        </mxCell>
        <mxCell id="SpY3q293IQmlEWs57RyB-24" value="" style="endArrow=none;html=1;rounded=0;entryX=0.5;entryY=1;entryDx=0;entryDy=0;" parent="1" edge="1">
          <mxGeometry width="50" height="50" relative="1" as="geometry">
            <mxPoint x="400" y="240" as="sourcePoint" />
            <mxPoint x="400" y="190" as="targetPoint" />
          </mxGeometry>
        </mxCell>
        <mxCell id="SpY3q293IQmlEWs57RyB-25" value="" style="endArrow=none;html=1;rounded=0;entryX=0;entryY=0.5;entryDx=0;entryDy=0;" parent="1" target="SpY3q293IQmlEWs57RyB-5" edge="1">
          <mxGeometry width="50" height="50" relative="1" as="geometry">
            <mxPoint x="180" y="240" as="sourcePoint" />
            <mxPoint x="610" y="280" as="targetPoint" />
          </mxGeometry>
        </mxCell>
        <mxCell id="SpY3q293IQmlEWs57RyB-26" value="" style="endArrow=none;html=1;rounded=0;entryX=0;entryY=0.5;entryDx=0;entryDy=0;" parent="1" edge="1">
          <mxGeometry width="50" height="50" relative="1" as="geometry">
            <mxPoint x="280" y="240" as="sourcePoint" />
            <mxPoint x="280" y="260" as="targetPoint" />
          </mxGeometry>
        </mxCell>
        <mxCell id="SpY3q293IQmlEWs57RyB-29" value="" style="endArrow=none;html=1;rounded=0;" parent="1" edge="1">
          <mxGeometry width="50" height="50" relative="1" as="geometry">
            <mxPoint x="450" y="240" as="sourcePoint" />
            <mxPoint x="350" y="240" as="targetPoint" />
          </mxGeometry>
        </mxCell>
        <mxCell id="SpY3q293IQmlEWs57RyB-30" value="" style="endArrow=none;html=1;rounded=0;" parent="1" edge="1">
          <mxGeometry width="50" height="50" relative="1" as="geometry">
            <mxPoint x="790" y="240" as="sourcePoint" />
            <mxPoint x="690" y="240" as="targetPoint" />
          </mxGeometry>
        </mxCell>
        <mxCell id="SpY3q293IQmlEWs57RyB-31" value="" style="endArrow=none;html=1;rounded=0;" parent="1" edge="1">
          <mxGeometry width="50" height="50" relative="1" as="geometry">
            <mxPoint x="630" y="240" as="sourcePoint" />
            <mxPoint x="540" y="240" as="targetPoint" />
          </mxGeometry>
        </mxCell>
        <mxCell id="SpY3q293IQmlEWs57RyB-33" value="" style="endArrow=none;html=1;rounded=0;entryX=0;entryY=0.5;entryDx=0;entryDy=0;" parent="1" edge="1">
          <mxGeometry width="50" height="50" relative="1" as="geometry">
            <mxPoint x="350" y="240" as="sourcePoint" />
            <mxPoint x="350" y="260" as="targetPoint" />
          </mxGeometry>
        </mxCell>
        <mxCell id="SpY3q293IQmlEWs57RyB-34" value="" style="endArrow=none;html=1;rounded=0;entryX=0;entryY=0.5;entryDx=0;entryDy=0;" parent="1" edge="1">
          <mxGeometry width="50" height="50" relative="1" as="geometry">
            <mxPoint x="450" y="240" as="sourcePoint" />
            <mxPoint x="450" y="260" as="targetPoint" />
          </mxGeometry>
        </mxCell>
        <mxCell id="SpY3q293IQmlEWs57RyB-35" value="" style="endArrow=none;html=1;rounded=0;entryX=0;entryY=0.5;entryDx=0;entryDy=0;" parent="1" edge="1">
          <mxGeometry width="50" height="50" relative="1" as="geometry">
            <mxPoint x="630" y="240" as="sourcePoint" />
            <mxPoint x="630" y="260" as="targetPoint" />
          </mxGeometry>
        </mxCell>
        <mxCell id="SpY3q293IQmlEWs57RyB-36" value="" style="endArrow=none;html=1;rounded=0;entryX=0;entryY=0.5;entryDx=0;entryDy=0;" parent="1" edge="1">
          <mxGeometry width="50" height="50" relative="1" as="geometry">
            <mxPoint x="690" y="240" as="sourcePoint" />
            <mxPoint x="690" y="260" as="targetPoint" />
          </mxGeometry>
        </mxCell>
        <mxCell id="SpY3q293IQmlEWs57RyB-37" value="" style="endArrow=none;html=1;rounded=0;entryX=0;entryY=0.5;entryDx=0;entryDy=0;" parent="1" edge="1">
          <mxGeometry width="50" height="50" relative="1" as="geometry">
            <mxPoint x="789.71" y="240" as="sourcePoint" />
            <mxPoint x="789.71" y="260" as="targetPoint" />
          </mxGeometry>
        </mxCell>
        <mxCell id="SpY3q293IQmlEWs57RyB-38" value="" style="endArrow=none;html=1;rounded=0;entryX=0;entryY=0.5;entryDx=0;entryDy=0;" parent="1" edge="1">
          <mxGeometry width="50" height="50" relative="1" as="geometry">
            <mxPoint x="539.71" y="240" as="sourcePoint" />
            <mxPoint x="539.71" y="260" as="targetPoint" />
          </mxGeometry>
        </mxCell>
      </root>
    </mxGraphModel>
  </diagram>
  <diagram id="QBNB9no1at_FSSgJoO2V" name="第 1 页">
    <mxGraphModel dx="2219" dy="619" grid="0" gridSize="10" guides="1" tooltips="1" connect="1" arrows="1" fold="1" page="1" pageScale="1" pageWidth="1169" pageHeight="827" background="#ffffff" math="0" shadow="0">
      <root>
        <mxCell id="0" />
        <mxCell id="1" parent="0" />
        <mxCell id="zEHXMnKuMd6NJN0wN5cv-5" style="edgeStyle=orthogonalEdgeStyle;rounded=0;orthogonalLoop=1;jettySize=auto;html=1;entryX=0.028;entryY=0.4;entryDx=0;entryDy=0;entryPerimeter=0;fillColor=#dae8fc;strokeColor=#6c8ebf;strokeWidth=4;" parent="1" source="zEHXMnKuMd6NJN0wN5cv-1" target="zEHXMnKuMd6NJN0wN5cv-2" edge="1">
          <mxGeometry relative="1" as="geometry" />
        </mxCell>
        <mxCell id="zEHXMnKuMd6NJN0wN5cv-1" value="用户正筛子" style="ellipse;whiteSpace=wrap;html=1;fillColor=#fff2cc;strokeColor=#d6b656;" parent="1" vertex="1">
          <mxGeometry x="-10" y="50" width="120" height="80" as="geometry" />
        </mxCell>
        <mxCell id="zEHXMnKuMd6NJN0wN5cv-36" value="" style="edgeStyle=orthogonalEdgeStyle;rounded=0;orthogonalLoop=1;jettySize=auto;html=1;strokeWidth=4;" parent="1" source="zEHXMnKuMd6NJN0wN5cv-2" target="zEHXMnKuMd6NJN0wN5cv-35" edge="1">
          <mxGeometry relative="1" as="geometry" />
        </mxCell>
        <mxCell id="zEHXMnKuMd6NJN0wN5cv-2" value="生成一个随机数" style="rounded=0;whiteSpace=wrap;html=1;fillColor=#d5e8d4;strokeColor=#82b366;" parent="1" vertex="1">
          <mxGeometry x="186" y="66" width="120" height="60" as="geometry" />
        </mxCell>
        <mxCell id="zEHXMnKuMd6NJN0wN5cv-25" value="" style="edgeStyle=orthogonalEdgeStyle;rounded=0;orthogonalLoop=1;jettySize=auto;html=1;fillColor=#dae8fc;strokeColor=#6c8ebf;strokeWidth=4;" parent="1" source="zEHXMnKuMd6NJN0wN5cv-23" target="zEHXMnKuMd6NJN0wN5cv-24" edge="1">
          <mxGeometry relative="1" as="geometry" />
        </mxCell>
        <mxCell id="zEHXMnKuMd6NJN0wN5cv-23" value="用户重置游戏" style="ellipse;whiteSpace=wrap;html=1;fillColor=#ffe6cc;strokeColor=#d79b00;" parent="1" vertex="1">
          <mxGeometry x="4" y="481" width="120" height="80" as="geometry" />
        </mxCell>
        <mxCell id="zEHXMnKuMd6NJN0wN5cv-27" value="" style="edgeStyle=orthogonalEdgeStyle;rounded=0;orthogonalLoop=1;jettySize=auto;html=1;fillColor=#dae8fc;strokeColor=#6c8ebf;strokeWidth=4;" parent="1" source="zEHXMnKuMd6NJN0wN5cv-24" target="zEHXMnKuMd6NJN0wN5cv-26" edge="1">
          <mxGeometry relative="1" as="geometry" />
        </mxCell>
        <mxCell id="zEHXMnKuMd6NJN0wN5cv-24" value="将所有分数置0" style="whiteSpace=wrap;html=1;fillColor=#d5e8d4;strokeColor=#82b366;" parent="1" vertex="1">
          <mxGeometry x="204" y="491" width="120" height="60" as="geometry" />
        </mxCell>
        <mxCell id="zEHXMnKuMd6NJN0wN5cv-26" value="将玩家1作为当前玩家" style="whiteSpace=wrap;html=1;fillColor=#d5e8d4;strokeColor=#82b366;" parent="1" vertex="1">
          <mxGeometry x="404" y="491" width="120" height="60" as="geometry" />
        </mxCell>
        <mxCell id="zEHXMnKuMd6NJN0wN5cv-39" value="" style="edgeStyle=orthogonalEdgeStyle;rounded=0;orthogonalLoop=1;jettySize=auto;html=1;strokeWidth=4;" parent="1" source="zEHXMnKuMd6NJN0wN5cv-35" target="zEHXMnKuMd6NJN0wN5cv-38" edge="1">
          <mxGeometry relative="1" as="geometry" />
        </mxCell>
        <mxCell id="zEHXMnKuMd6NJN0wN5cv-35" value="显示随机数" style="whiteSpace=wrap;html=1;fillColor=#d5e8d4;strokeColor=#82b366;rounded=0;" parent="1" vertex="1">
          <mxGeometry x="386" y="66" width="118" height="60" as="geometry" />
        </mxCell>
        <mxCell id="zEHXMnKuMd6NJN0wN5cv-41" value="" style="edgeStyle=orthogonalEdgeStyle;rounded=0;orthogonalLoop=1;jettySize=auto;html=1;strokeWidth=4;" parent="1" source="zEHXMnKuMd6NJN0wN5cv-38" target="zEHXMnKuMd6NJN0wN5cv-40" edge="1">
          <mxGeometry relative="1" as="geometry" />
        </mxCell>
        <mxCell id="zEHXMnKuMd6NJN0wN5cv-43" value="" style="edgeStyle=orthogonalEdgeStyle;rounded=0;orthogonalLoop=1;jettySize=auto;html=1;strokeWidth=4;" parent="1" source="zEHXMnKuMd6NJN0wN5cv-38" target="zEHXMnKuMd6NJN0wN5cv-42" edge="1">
          <mxGeometry relative="1" as="geometry" />
        </mxCell>
        <mxCell id="zEHXMnKuMd6NJN0wN5cv-38" value="筛子是否为1" style="rhombus;whiteSpace=wrap;html=1;fillColor=#fad7ac;strokeColor=#b46504;rounded=0;" parent="1" vertex="1">
          <mxGeometry x="603" y="56" width="137" height="80" as="geometry" />
        </mxCell>
        <mxCell id="zEHXMnKuMd6NJN0wN5cv-45" value="" style="edgeStyle=orthogonalEdgeStyle;rounded=0;orthogonalLoop=1;jettySize=auto;html=1;strokeWidth=4;fillColor=#dae8fc;strokeColor=#6c8ebf;" parent="1" source="zEHXMnKuMd6NJN0wN5cv-40" target="zEHXMnKuMd6NJN0wN5cv-44" edge="1">
          <mxGeometry relative="1" as="geometry" />
        </mxCell>
        <mxCell id="zEHXMnKuMd6NJN0wN5cv-40" value="将筛子数加到当前分数" style="whiteSpace=wrap;html=1;fillColor=#d5e8d4;strokeColor=#82b366;rounded=0;" parent="1" vertex="1">
          <mxGeometry x="828.5" y="66" width="120" height="60" as="geometry" />
        </mxCell>
        <mxCell id="zEHXMnKuMd6NJN0wN5cv-42" value="转换到另一个玩家" style="whiteSpace=wrap;html=1;fillColor=#d5e8d4;strokeColor=#82b366;rounded=0;" parent="1" vertex="1">
          <mxGeometry x="611.5" y="226" width="120" height="60" as="geometry" />
        </mxCell>
        <mxCell id="zEHXMnKuMd6NJN0wN5cv-44" value="显示新的分数" style="whiteSpace=wrap;html=1;fillColor=#d5e8d4;strokeColor=#82b366;rounded=0;" parent="1" vertex="1">
          <mxGeometry x="1028.5" y="66" width="120" height="60" as="geometry" />
        </mxCell>
        <mxCell id="zEHXMnKuMd6NJN0wN5cv-53" value="" style="edgeStyle=orthogonalEdgeStyle;rounded=0;orthogonalLoop=1;jettySize=auto;html=1;strokeWidth=4;" parent="1" source="zEHXMnKuMd6NJN0wN5cv-50" target="zEHXMnKuMd6NJN0wN5cv-52" edge="1">
          <mxGeometry relative="1" as="geometry" />
        </mxCell>
        <mxCell id="zEHXMnKuMd6NJN0wN5cv-59" style="edgeStyle=orthogonalEdgeStyle;rounded=0;orthogonalLoop=1;jettySize=auto;html=1;exitX=1;exitY=0.5;exitDx=0;exitDy=0;strokeWidth=4;endArrow=classic;endFill=1;" parent="1" source="zEHXMnKuMd6NJN0wN5cv-50" target="zEHXMnKuMd6NJN0wN5cv-42" edge="1">
          <mxGeometry relative="1" as="geometry" />
        </mxCell>
        <mxCell id="zEHXMnKuMd6NJN0wN5cv-50" value="score&amp;gt;=100" style="rhombus;whiteSpace=wrap;html=1;fillColor=#fad7ac;strokeColor=#b46504;rounded=0;" parent="1" vertex="1">
          <mxGeometry x="409" y="216" width="102.5" height="80" as="geometry" />
        </mxCell>
        <mxCell id="zEHXMnKuMd6NJN0wN5cv-52" value="当前玩家获胜" style="whiteSpace=wrap;html=1;fillColor=#f8cecc;strokeColor=#b85450;rounded=0;" parent="1" vertex="1">
          <mxGeometry x="400.25" y="386" width="120" height="60" as="geometry" />
        </mxCell>
        <mxCell id="zEHXMnKuMd6NJN0wN5cv-58" style="edgeStyle=orthogonalEdgeStyle;rounded=0;orthogonalLoop=1;jettySize=auto;html=1;exitX=1;exitY=0.5;exitDx=0;exitDy=0;strokeWidth=4;endArrow=classic;endFill=1;" parent="1" source="zEHXMnKuMd6NJN0wN5cv-54" target="zEHXMnKuMd6NJN0wN5cv-50" edge="1">
          <mxGeometry relative="1" as="geometry" />
        </mxCell>
        <mxCell id="zEHXMnKuMd6NJN0wN5cv-54" value="分数累加" style="whiteSpace=wrap;html=1;fillColor=#d5e8d4;strokeColor=#82b366;rounded=0;" parent="1" vertex="1">
          <mxGeometry x="217.75" y="226" width="120" height="60" as="geometry" />
        </mxCell>
        <mxCell id="zEHXMnKuMd6NJN0wN5cv-60" style="edgeStyle=orthogonalEdgeStyle;rounded=0;orthogonalLoop=1;jettySize=auto;html=1;exitX=1;exitY=0.5;exitDx=0;exitDy=0;entryX=0;entryY=0.5;entryDx=0;entryDy=0;strokeWidth=4;endArrow=classic;endFill=1;" parent="1" source="zEHXMnKuMd6NJN0wN5cv-56" target="zEHXMnKuMd6NJN0wN5cv-54" edge="1">
          <mxGeometry relative="1" as="geometry" />
        </mxCell>
        <mxCell id="zEHXMnKuMd6NJN0wN5cv-56" value="用户手动结束本轮" style="ellipse;whiteSpace=wrap;html=1;fillColor=#fff2cc;strokeColor=#d6b656;rounded=0;" parent="1" vertex="1">
          <mxGeometry x="17.75" y="226" width="120" height="60" as="geometry" />
        </mxCell>
        <mxCell id="zEHXMnKuMd6NJN0wN5cv-61" value="" style="edgeStyle=orthogonalEdgeStyle;rounded=0;orthogonalLoop=1;jettySize=auto;html=1;strokeWidth=4;fillColor=#dae8fc;strokeColor=#6c8ebf;" parent="1" edge="1">
          <mxGeometry relative="1" as="geometry">
            <mxPoint x="306" y="96" as="sourcePoint" />
            <mxPoint x="386" y="96" as="targetPoint" />
          </mxGeometry>
        </mxCell>
        <mxCell id="zEHXMnKuMd6NJN0wN5cv-62" style="edgeStyle=orthogonalEdgeStyle;rounded=0;orthogonalLoop=1;jettySize=auto;html=1;exitX=1;exitY=0.5;exitDx=0;exitDy=0;entryX=0;entryY=0.5;entryDx=0;entryDy=0;strokeWidth=4;endArrow=classic;endFill=1;fillColor=#dae8fc;strokeColor=#6c8ebf;" parent="1" edge="1">
          <mxGeometry relative="1" as="geometry">
            <mxPoint x="137.75" y="256" as="sourcePoint" />
            <mxPoint x="217.75" y="256" as="targetPoint" />
          </mxGeometry>
        </mxCell>
        <mxCell id="zEHXMnKuMd6NJN0wN5cv-63" style="edgeStyle=orthogonalEdgeStyle;rounded=0;orthogonalLoop=1;jettySize=auto;html=1;exitX=1;exitY=0.5;exitDx=0;exitDy=0;strokeWidth=4;endArrow=classic;endFill=1;fillColor=#dae8fc;strokeColor=#6c8ebf;" parent="1" edge="1">
          <mxGeometry relative="1" as="geometry">
            <mxPoint x="337.75" y="256" as="sourcePoint" />
            <mxPoint x="409" y="256" as="targetPoint" />
          </mxGeometry>
        </mxCell>
        <mxCell id="zEHXMnKuMd6NJN0wN5cv-64" value="" style="edgeStyle=orthogonalEdgeStyle;rounded=0;orthogonalLoop=1;jettySize=auto;html=1;strokeWidth=4;fillColor=#dae8fc;strokeColor=#6c8ebf;" parent="1" edge="1">
          <mxGeometry relative="1" as="geometry">
            <mxPoint x="460.3000000000002" y="295.9609756097559" as="sourcePoint" />
            <mxPoint x="460.3000000000002" y="386" as="targetPoint" />
          </mxGeometry>
        </mxCell>
        <mxCell id="zEHXMnKuMd6NJN0wN5cv-65" style="edgeStyle=orthogonalEdgeStyle;rounded=0;orthogonalLoop=1;jettySize=auto;html=1;exitX=1;exitY=0.5;exitDx=0;exitDy=0;strokeWidth=4;endArrow=classic;endFill=1;fillColor=#dae8fc;strokeColor=#6c8ebf;" parent="1" edge="1">
          <mxGeometry relative="1" as="geometry">
            <mxPoint x="511.5" y="256" as="sourcePoint" />
            <mxPoint x="611.5" y="256" as="targetPoint" />
          </mxGeometry>
        </mxCell>
        <mxCell id="zEHXMnKuMd6NJN0wN5cv-66" value="" style="edgeStyle=orthogonalEdgeStyle;rounded=0;orthogonalLoop=1;jettySize=auto;html=1;strokeWidth=4;fillColor=#dae8fc;strokeColor=#6c8ebf;" parent="1" edge="1">
          <mxGeometry relative="1" as="geometry">
            <mxPoint x="504" y="96" as="sourcePoint" />
            <mxPoint x="603" y="96" as="targetPoint" />
          </mxGeometry>
        </mxCell>
        <mxCell id="zEHXMnKuMd6NJN0wN5cv-67" value="" style="edgeStyle=orthogonalEdgeStyle;rounded=0;orthogonalLoop=1;jettySize=auto;html=1;strokeWidth=4;fillColor=#dae8fc;strokeColor=#6c8ebf;" parent="1" edge="1">
          <mxGeometry relative="1" as="geometry">
            <mxPoint x="671.5" y="136" as="sourcePoint" />
            <mxPoint x="671.5" y="226" as="targetPoint" />
          </mxGeometry>
        </mxCell>
        <mxCell id="zEHXMnKuMd6NJN0wN5cv-68" value="" style="edgeStyle=orthogonalEdgeStyle;rounded=0;orthogonalLoop=1;jettySize=auto;html=1;strokeWidth=4;fillColor=#dae8fc;strokeColor=#6c8ebf;" parent="1" edge="1">
          <mxGeometry relative="1" as="geometry">
            <mxPoint x="740" y="96" as="sourcePoint" />
            <mxPoint x="828.5" y="96" as="targetPoint" />
          </mxGeometry>
        </mxCell>
        <mxCell id="zEHXMnKuMd6NJN0wN5cv-70" value="&lt;b&gt;&lt;font style=&quot;font-size: 13px;&quot;&gt;NO&lt;/font&gt;&lt;/b&gt;" style="text;html=1;align=center;verticalAlign=middle;resizable=0;points=[];autosize=1;strokeColor=none;fillColor=none;" parent="1" vertex="1">
          <mxGeometry x="523" y="223" width="38" height="28" as="geometry" />
        </mxCell>
        <mxCell id="zEHXMnKuMd6NJN0wN5cv-71" value="&lt;b&gt;&lt;font style=&quot;font-size: 13px;&quot;&gt;YES&lt;/font&gt;&lt;/b&gt;" style="text;html=1;align=center;verticalAlign=middle;resizable=0;points=[];autosize=1;strokeColor=none;fillColor=none;" parent="1" vertex="1">
          <mxGeometry x="467" y="304" width="44" height="28" as="geometry" />
        </mxCell>
        <mxCell id="zEHXMnKuMd6NJN0wN5cv-72" value="&lt;b&gt;&lt;font style=&quot;font-size: 13px;&quot;&gt;NO&lt;/font&gt;&lt;/b&gt;" style="text;html=1;align=center;verticalAlign=middle;resizable=0;points=[];autosize=1;strokeColor=none;fillColor=none;" parent="1" vertex="1">
          <mxGeometry x="761" y="66" width="38" height="28" as="geometry" />
        </mxCell>
        <mxCell id="zEHXMnKuMd6NJN0wN5cv-73" value="&lt;b&gt;&lt;font style=&quot;font-size: 13px;&quot;&gt;YES&lt;/font&gt;&lt;/b&gt;" style="text;html=1;align=center;verticalAlign=middle;resizable=0;points=[];autosize=1;strokeColor=none;fillColor=none;" parent="1" vertex="1">
          <mxGeometry x="670" y="148" width="44" height="28" as="geometry" />
        </mxCell>
      </root>
    </mxGraphModel>
  </diagram>
  <diagram id="bX1BYaVmA0Gw_1_JANjZ" name="第 3 页">
    <mxGraphModel dx="1050" dy="619" grid="1" gridSize="10" guides="1" tooltips="1" connect="1" arrows="1" fold="1" page="1" pageScale="1" pageWidth="1169" pageHeight="827" math="0" shadow="0">
      <root>
        <mxCell id="0" />
        <mxCell id="1" parent="0" />
        <mxCell id="jTE3fhc5p146zb_Erkor-1" value="&lt;font style=&quot;font-size: 18px;&quot;&gt;E&lt;/font&gt;" style="rounded=1;whiteSpace=wrap;html=1;fillColor=#d5e8d4;strokeColor=#82b366;" parent="1" vertex="1">
          <mxGeometry x="420" y="80" width="120" height="60" as="geometry" />
        </mxCell>
        <mxCell id="jTE3fhc5p146zb_Erkor-2" value="&lt;font style=&quot;font-size: 18px;&quot;&gt;T&lt;/font&gt;" style="rounded=1;whiteSpace=wrap;html=1;fillColor=#d5e8d4;strokeColor=#82b366;" parent="1" vertex="1">
          <mxGeometry x="50" y="80" width="120" height="60" as="geometry" />
        </mxCell>
        <mxCell id="jTE3fhc5p146zb_Erkor-3" value="&lt;font style=&quot;font-size: 18px;&quot;&gt;P&lt;/font&gt;" style="rounded=1;whiteSpace=wrap;html=1;fillColor=#d5e8d4;strokeColor=#82b366;" parent="1" vertex="1">
          <mxGeometry x="710" y="80" width="120" height="60" as="geometry" />
        </mxCell>
        <mxCell id="jTE3fhc5p146zb_Erkor-4" value="&lt;font style=&quot;font-size: 18px;&quot;&gt;算法&lt;/font&gt;" style="rounded=0;whiteSpace=wrap;html=1;fillColor=#d5e8d4;strokeColor=#82b366;" parent="1" vertex="1">
          <mxGeometry x="40" y="230" width="120" height="60" as="geometry" />
        </mxCell>
        <mxCell id="jTE3fhc5p146zb_Erkor-5" value="&lt;font style=&quot;font-size: 18px;&quot;&gt;模型&lt;/font&gt;" style="rounded=0;whiteSpace=wrap;html=1;fillColor=#d5e8d4;strokeColor=#82b366;" parent="1" vertex="1">
          <mxGeometry x="420" y="230" width="120" height="60" as="geometry" />
        </mxCell>
        <mxCell id="jTE3fhc5p146zb_Erkor-6" value="&lt;font style=&quot;font-size: 18px;&quot;&gt;评估&lt;/font&gt;" style="rounded=0;whiteSpace=wrap;html=1;fillColor=#d5e8d4;strokeColor=#82b366;" parent="1" vertex="1">
          <mxGeometry x="710" y="230" width="120" height="60" as="geometry" />
        </mxCell>
        <mxCell id="jTE3fhc5p146zb_Erkor-7" value="" style="shape=flexArrow;endArrow=classic;html=1;rounded=0;fillColor=#f5f5f5;strokeColor=#666666;" parent="1" edge="1">
          <mxGeometry width="50" height="50" relative="1" as="geometry">
            <mxPoint x="100" y="150" as="sourcePoint" />
            <mxPoint x="100" y="210" as="targetPoint" />
          </mxGeometry>
        </mxCell>
        <mxCell id="jTE3fhc5p146zb_Erkor-10" value="" style="shape=flexArrow;endArrow=classic;html=1;rounded=0;fillColor=#f5f5f5;strokeColor=#666666;" parent="1" edge="1">
          <mxGeometry width="50" height="50" relative="1" as="geometry">
            <mxPoint x="760" y="160" as="sourcePoint" />
            <mxPoint x="760" y="220" as="targetPoint" />
          </mxGeometry>
        </mxCell>
        <mxCell id="jTE3fhc5p146zb_Erkor-11" value="" style="shape=flexArrow;endArrow=classic;html=1;rounded=0;fillColor=#f5f5f5;strokeColor=#666666;" parent="1" edge="1">
          <mxGeometry x="-0.6667" y="340" width="50" height="50" relative="1" as="geometry">
            <mxPoint x="479.5" y="160" as="sourcePoint" />
            <mxPoint x="479.5" y="220" as="targetPoint" />
            <mxPoint as="offset" />
          </mxGeometry>
        </mxCell>
        <mxCell id="jTE3fhc5p146zb_Erkor-12" value="" style="shape=flexArrow;endArrow=classic;html=1;rounded=0;fillColor=#dae8fc;strokeColor=#6c8ebf;" parent="1" edge="1">
          <mxGeometry width="50" height="50" relative="1" as="geometry">
            <mxPoint x="200" y="259.5" as="sourcePoint" />
            <mxPoint x="330" y="259.5" as="targetPoint" />
          </mxGeometry>
        </mxCell>
        <mxCell id="jTE3fhc5p146zb_Erkor-13" value="" style="shape=flexArrow;endArrow=classic;html=1;rounded=0;fillColor=#dae8fc;strokeColor=#6c8ebf;" parent="1" edge="1">
          <mxGeometry width="50" height="50" relative="1" as="geometry">
            <mxPoint x="560" y="259.5" as="sourcePoint" />
            <mxPoint x="690" y="259.5" as="targetPoint" />
          </mxGeometry>
        </mxCell>
        <mxCell id="jTE3fhc5p146zb_Erkor-14" value="" style="shape=flexArrow;endArrow=classic;html=1;rounded=0;fillColor=#dae8fc;strokeColor=#6c8ebf;" parent="1" edge="1">
          <mxGeometry width="50" height="50" relative="1" as="geometry">
            <mxPoint x="760" y="310" as="sourcePoint" />
            <mxPoint x="760" y="390" as="targetPoint" />
          </mxGeometry>
        </mxCell>
        <mxCell id="jTE3fhc5p146zb_Erkor-15" value="" style="shape=flexArrow;endArrow=classic;html=1;rounded=0;fillColor=#dae8fc;strokeColor=#6c8ebf;" parent="1" edge="1">
          <mxGeometry width="50" height="50" relative="1" as="geometry">
            <mxPoint x="690" y="360" as="sourcePoint" />
            <mxPoint x="560" y="360" as="targetPoint" />
          </mxGeometry>
        </mxCell>
        <mxCell id="jTE3fhc5p146zb_Erkor-16" value="" style="shape=flexArrow;endArrow=classic;html=1;rounded=0;fillColor=#dae8fc;strokeColor=#6c8ebf;" parent="1" edge="1">
          <mxGeometry width="50" height="50" relative="1" as="geometry">
            <mxPoint x="330" y="360" as="sourcePoint" />
            <mxPoint x="200" y="360" as="targetPoint" />
          </mxGeometry>
        </mxCell>
        <mxCell id="jTE3fhc5p146zb_Erkor-17" value="" style="shape=flexArrow;endArrow=classic;html=1;rounded=0;fillColor=#dae8fc;strokeColor=#6c8ebf;" parent="1" edge="1">
          <mxGeometry width="50" height="50" relative="1" as="geometry">
            <mxPoint x="540" y="360" as="sourcePoint" />
            <mxPoint x="410" y="360" as="targetPoint" />
          </mxGeometry>
        </mxCell>
        <mxCell id="jTE3fhc5p146zb_Erkor-18" value="" style="shape=flexArrow;endArrow=classic;html=1;rounded=0;fillColor=#dae8fc;strokeColor=#6c8ebf;" parent="1" edge="1">
          <mxGeometry x="1" y="-492" width="50" height="50" relative="1" as="geometry">
            <mxPoint x="99.5" y="390" as="sourcePoint" />
            <mxPoint x="100" y="310" as="targetPoint" />
            <mxPoint x="2" y="40" as="offset" />
          </mxGeometry>
        </mxCell>
        <mxCell id="jTE3fhc5p146zb_Erkor-20" value="&lt;font color=&quot;#cccccc&quot;&gt;jackdeng&lt;/font&gt;" style="text;html=1;align=center;verticalAlign=middle;resizable=0;points=[];autosize=1;strokeColor=none;fillColor=none;fontSize=18;" parent="1" vertex="1">
          <mxGeometry x="920" y="480" width="100" height="40" as="geometry" />
        </mxCell>
      </root>
    </mxGraphModel>
  </diagram>
  <diagram id="9dAzCt8kiUD8k1lYVk9n" name="第 4 页">
    <mxGraphModel dx="1050" dy="653" grid="1" gridSize="10" guides="1" tooltips="1" connect="1" arrows="1" fold="1" page="1" pageScale="1" pageWidth="827" pageHeight="1169" math="0" shadow="0">
      <root>
        <mxCell id="0" />
        <mxCell id="1" parent="0" />
        <mxCell id="BiqiR-KrkHukfpXaFOAR-4" value="" style="edgeStyle=orthogonalEdgeStyle;rounded=0;orthogonalLoop=1;jettySize=auto;html=1;" edge="1" parent="1" source="BiqiR-KrkHukfpXaFOAR-1" target="BiqiR-KrkHukfpXaFOAR-3">
          <mxGeometry relative="1" as="geometry" />
        </mxCell>
        <mxCell id="BiqiR-KrkHukfpXaFOAR-1" value="User Logs in" style="strokeWidth=2;html=1;shape=mxgraph.flowchart.start_1;whiteSpace=wrap;" vertex="1" parent="1">
          <mxGeometry x="70" y="140" width="100" height="60" as="geometry" />
        </mxCell>
        <mxCell id="BiqiR-KrkHukfpXaFOAR-6" style="edgeStyle=orthogonalEdgeStyle;rounded=0;orthogonalLoop=1;jettySize=auto;html=1;exitX=1;exitY=0.5;exitDx=0;exitDy=0;" edge="1" parent="1" source="BiqiR-KrkHukfpXaFOAR-3" target="BiqiR-KrkHukfpXaFOAR-5">
          <mxGeometry relative="1" as="geometry" />
        </mxCell>
        <mxCell id="BiqiR-KrkHukfpXaFOAR-7" style="edgeStyle=orthogonalEdgeStyle;rounded=0;orthogonalLoop=1;jettySize=auto;html=1;exitX=1;exitY=0.5;exitDx=0;exitDy=0;" edge="1" parent="1" source="BiqiR-KrkHukfpXaFOAR-3">
          <mxGeometry relative="1" as="geometry">
            <mxPoint x="270" y="280" as="targetPoint" />
          </mxGeometry>
        </mxCell>
        <mxCell id="BiqiR-KrkHukfpXaFOAR-3" value="correct&lt;br&gt;credentials?" style="rhombus;whiteSpace=wrap;html=1;strokeWidth=2;" vertex="1" parent="1">
          <mxGeometry x="260" y="130" width="80" height="80" as="geometry" />
        </mxCell>
        <mxCell id="BiqiR-KrkHukfpXaFOAR-5" value="" style="rounded=1;whiteSpace=wrap;html=1;absoluteArcSize=1;arcSize=14;strokeWidth=2;fillColor=#eeeeee;strokeColor=#36393d;" vertex="1" parent="1">
          <mxGeometry x="380" y="110" width="360" height="290" as="geometry" />
        </mxCell>
        <mxCell id="BiqiR-KrkHukfpXaFOAR-9" value="Display UI&lt;br&gt;welcome message" style="rounded=0;whiteSpace=wrap;html=1;" vertex="1" parent="1">
          <mxGeometry x="200" y="280" width="120" height="60" as="geometry" />
        </mxCell>
        <mxCell id="BiqiR-KrkHukfpXaFOAR-16" style="edgeStyle=orthogonalEdgeStyle;rounded=0;orthogonalLoop=1;jettySize=auto;html=1;" edge="1" parent="1" source="BiqiR-KrkHukfpXaFOAR-10" target="BiqiR-KrkHukfpXaFOAR-11">
          <mxGeometry relative="1" as="geometry" />
        </mxCell>
        <mxCell id="BiqiR-KrkHukfpXaFOAR-10" value="Calculate&lt;br&gt;balance" style="rounded=0;whiteSpace=wrap;html=1;" vertex="1" parent="1">
          <mxGeometry x="400" y="130" width="110" height="50" as="geometry" />
        </mxCell>
        <mxCell id="BiqiR-KrkHukfpXaFOAR-11" value="display balance" style="rounded=0;whiteSpace=wrap;html=1;" vertex="1" parent="1">
          <mxGeometry x="590" y="130" width="110" height="50" as="geometry" />
        </mxCell>
        <mxCell id="BiqiR-KrkHukfpXaFOAR-17" style="edgeStyle=orthogonalEdgeStyle;rounded=0;orthogonalLoop=1;jettySize=auto;html=1;exitX=1;exitY=0.5;exitDx=0;exitDy=0;entryX=0;entryY=0.5;entryDx=0;entryDy=0;" edge="1" parent="1" source="BiqiR-KrkHukfpXaFOAR-12" target="BiqiR-KrkHukfpXaFOAR-15">
          <mxGeometry relative="1" as="geometry" />
        </mxCell>
        <mxCell id="BiqiR-KrkHukfpXaFOAR-12" value="Calculate&lt;br&gt;summary&lt;span style=&quot;white-space: pre;&quot;&gt; &lt;/span&gt;" style="rounded=0;whiteSpace=wrap;html=1;" vertex="1" parent="1">
          <mxGeometry x="400" y="210" width="110" height="50" as="geometry" />
        </mxCell>
        <mxCell id="BiqiR-KrkHukfpXaFOAR-13" value="Display movements" style="rounded=0;whiteSpace=wrap;html=1;" vertex="1" parent="1">
          <mxGeometry x="400" y="270" width="110" height="50" as="geometry" />
        </mxCell>
        <mxCell id="BiqiR-KrkHukfpXaFOAR-14" value="Start/restart&lt;br&gt;logout timer" style="rounded=0;whiteSpace=wrap;html=1;" vertex="1" parent="1">
          <mxGeometry x="400" y="330" width="110" height="50" as="geometry" />
        </mxCell>
        <mxCell id="BiqiR-KrkHukfpXaFOAR-15" value="Display summary" style="rounded=0;whiteSpace=wrap;html=1;" vertex="1" parent="1">
          <mxGeometry x="590" y="210" width="110" height="50" as="geometry" />
        </mxCell>
        <mxCell id="BiqiR-KrkHukfpXaFOAR-18" value="&lt;b&gt;&lt;i&gt;Update UI&lt;/i&gt;&lt;/b&gt;" style="text;html=1;strokeColor=none;fillColor=none;align=center;verticalAlign=middle;whiteSpace=wrap;rounded=0;" vertex="1" parent="1">
          <mxGeometry x="615" y="320" width="60" height="30" as="geometry" />
        </mxCell>
        <mxCell id="BiqiR-KrkHukfpXaFOAR-23" value="" style="edgeStyle=orthogonalEdgeStyle;rounded=0;orthogonalLoop=1;jettySize=auto;html=1;" edge="1" parent="1" source="BiqiR-KrkHukfpXaFOAR-20" target="BiqiR-KrkHukfpXaFOAR-22">
          <mxGeometry relative="1" as="geometry" />
        </mxCell>
        <mxCell id="BiqiR-KrkHukfpXaFOAR-20" value="User transfers&lt;br&gt;money" style="strokeWidth=2;html=1;shape=mxgraph.flowchart.start_1;whiteSpace=wrap;" vertex="1" parent="1">
          <mxGeometry x="60" y="430" width="100" height="60" as="geometry" />
        </mxCell>
        <mxCell id="BiqiR-KrkHukfpXaFOAR-32" value="" style="edgeStyle=orthogonalEdgeStyle;rounded=0;orthogonalLoop=1;jettySize=auto;html=1;" edge="1" parent="1" source="BiqiR-KrkHukfpXaFOAR-21" target="BiqiR-KrkHukfpXaFOAR-31">
          <mxGeometry relative="1" as="geometry" />
        </mxCell>
        <mxCell id="BiqiR-KrkHukfpXaFOAR-21" value="User requests&lt;br&gt;loan" style="strokeWidth=2;html=1;shape=mxgraph.flowchart.start_1;whiteSpace=wrap;" vertex="1" parent="1">
          <mxGeometry x="60" y="550" width="100" height="60" as="geometry" />
        </mxCell>
        <mxCell id="BiqiR-KrkHukfpXaFOAR-25" value="" style="edgeStyle=orthogonalEdgeStyle;rounded=0;orthogonalLoop=1;jettySize=auto;html=1;" edge="1" parent="1" source="BiqiR-KrkHukfpXaFOAR-22" target="BiqiR-KrkHukfpXaFOAR-24">
          <mxGeometry relative="1" as="geometry" />
        </mxCell>
        <mxCell id="BiqiR-KrkHukfpXaFOAR-22" value="Add negiative&lt;br&gt;movement to&amp;nbsp;&lt;br&gt;current user" style="whiteSpace=wrap;html=1;strokeWidth=2;" vertex="1" parent="1">
          <mxGeometry x="230" y="430" width="120" height="60" as="geometry" />
        </mxCell>
        <mxCell id="BiqiR-KrkHukfpXaFOAR-44" style="edgeStyle=orthogonalEdgeStyle;rounded=0;orthogonalLoop=1;jettySize=auto;html=1;entryX=0.583;entryY=1;entryDx=0;entryDy=0;entryPerimeter=0;" edge="1" parent="1" source="BiqiR-KrkHukfpXaFOAR-24" target="BiqiR-KrkHukfpXaFOAR-5">
          <mxGeometry relative="1" as="geometry" />
        </mxCell>
        <mxCell id="BiqiR-KrkHukfpXaFOAR-24" value="add positive&amp;nbsp;&lt;br&gt;movement to&lt;br&gt;recipient" style="whiteSpace=wrap;html=1;strokeWidth=2;" vertex="1" parent="1">
          <mxGeometry x="430" y="430" width="120" height="60" as="geometry" />
        </mxCell>
        <mxCell id="BiqiR-KrkHukfpXaFOAR-29" value="" style="edgeStyle=orthogonalEdgeStyle;rounded=0;orthogonalLoop=1;jettySize=auto;html=1;" edge="1" parent="1" target="BiqiR-KrkHukfpXaFOAR-28">
          <mxGeometry relative="1" as="geometry">
            <mxPoint x="350" y="580" as="sourcePoint" />
          </mxGeometry>
        </mxCell>
        <mxCell id="BiqiR-KrkHukfpXaFOAR-45" style="edgeStyle=orthogonalEdgeStyle;rounded=0;orthogonalLoop=1;jettySize=auto;html=1;entryX=0.666;entryY=1.002;entryDx=0;entryDy=0;entryPerimeter=0;" edge="1" parent="1" source="BiqiR-KrkHukfpXaFOAR-28" target="BiqiR-KrkHukfpXaFOAR-5">
          <mxGeometry relative="1" as="geometry">
            <mxPoint x="620" y="410" as="targetPoint" />
          </mxGeometry>
        </mxCell>
        <mxCell id="BiqiR-KrkHukfpXaFOAR-28" value="Add positive&lt;br&gt;movement to&lt;br&gt;current user" style="whiteSpace=wrap;html=1;strokeWidth=2;" vertex="1" parent="1">
          <mxGeometry x="470" y="550" width="120" height="60" as="geometry" />
        </mxCell>
        <mxCell id="BiqiR-KrkHukfpXaFOAR-31" value="Any ddeposit&amp;nbsp;&lt;br&gt;&amp;gt; 10%&lt;br&gt;of request?" style="rhombus;whiteSpace=wrap;html=1;strokeWidth=2;" vertex="1" parent="1">
          <mxGeometry x="250" y="540" width="150" height="80" as="geometry" />
        </mxCell>
        <mxCell id="BiqiR-KrkHukfpXaFOAR-33" value="" style="edgeStyle=orthogonalEdgeStyle;rounded=0;orthogonalLoop=1;jettySize=auto;html=1;" edge="1" parent="1" source="BiqiR-KrkHukfpXaFOAR-34" target="BiqiR-KrkHukfpXaFOAR-37">
          <mxGeometry relative="1" as="geometry" />
        </mxCell>
        <mxCell id="BiqiR-KrkHukfpXaFOAR-34" value="User close&amp;nbsp;&lt;br&gt;account" style="strokeWidth=2;html=1;shape=mxgraph.flowchart.start_1;whiteSpace=wrap;" vertex="1" parent="1">
          <mxGeometry x="60" y="670" width="100" height="60" as="geometry" />
        </mxCell>
        <mxCell id="BiqiR-KrkHukfpXaFOAR-35" value="" style="edgeStyle=orthogonalEdgeStyle;rounded=0;orthogonalLoop=1;jettySize=auto;html=1;" edge="1" parent="1" target="BiqiR-KrkHukfpXaFOAR-36">
          <mxGeometry relative="1" as="geometry">
            <mxPoint x="350" y="700" as="sourcePoint" />
          </mxGeometry>
        </mxCell>
        <mxCell id="BiqiR-KrkHukfpXaFOAR-41" value="" style="edgeStyle=orthogonalEdgeStyle;rounded=0;orthogonalLoop=1;jettySize=auto;html=1;" edge="1" parent="1" source="BiqiR-KrkHukfpXaFOAR-36" target="BiqiR-KrkHukfpXaFOAR-40">
          <mxGeometry relative="1" as="geometry" />
        </mxCell>
        <mxCell id="BiqiR-KrkHukfpXaFOAR-36" value="Delete user from&amp;nbsp;&lt;br&gt;data" style="whiteSpace=wrap;html=1;strokeWidth=2;" vertex="1" parent="1">
          <mxGeometry x="470" y="670" width="120" height="60" as="geometry" />
        </mxCell>
        <mxCell id="BiqiR-KrkHukfpXaFOAR-37" value="Correct&lt;br&gt;credentials?" style="rhombus;whiteSpace=wrap;html=1;strokeWidth=2;" vertex="1" parent="1">
          <mxGeometry x="250" y="660" width="150" height="80" as="geometry" />
        </mxCell>
        <mxCell id="BiqiR-KrkHukfpXaFOAR-38" value="&lt;b&gt;Yes&lt;/b&gt;" style="text;html=1;align=center;verticalAlign=middle;resizable=0;points=[];autosize=1;strokeColor=none;fillColor=none;" vertex="1" parent="1">
          <mxGeometry x="410" y="655" width="40" height="30" as="geometry" />
        </mxCell>
        <mxCell id="BiqiR-KrkHukfpXaFOAR-39" value="&lt;b&gt;Yes&lt;/b&gt;" style="text;html=1;align=center;verticalAlign=middle;resizable=0;points=[];autosize=1;strokeColor=none;fillColor=none;" vertex="1" parent="1">
          <mxGeometry x="410" y="545" width="40" height="30" as="geometry" />
        </mxCell>
        <mxCell id="BiqiR-KrkHukfpXaFOAR-43" value="" style="edgeStyle=orthogonalEdgeStyle;rounded=0;orthogonalLoop=1;jettySize=auto;html=1;" edge="1" parent="1" source="BiqiR-KrkHukfpXaFOAR-40" target="BiqiR-KrkHukfpXaFOAR-42">
          <mxGeometry relative="1" as="geometry" />
        </mxCell>
        <mxCell id="BiqiR-KrkHukfpXaFOAR-40" value="Log user out&lt;br&gt;(hide UI )" style="whiteSpace=wrap;html=1;strokeWidth=2;" vertex="1" parent="1">
          <mxGeometry x="670" y="670" width="110" height="60" as="geometry" />
        </mxCell>
        <mxCell id="BiqiR-KrkHukfpXaFOAR-42" value="Logout timer&lt;br&gt;expries" style="ellipse;whiteSpace=wrap;html=1;strokeWidth=2;" vertex="1" parent="1">
          <mxGeometry x="875" y="660" width="80" height="80" as="geometry" />
        </mxCell>
        <mxCell id="BiqiR-KrkHukfpXaFOAR-49" value="" style="edgeStyle=orthogonalEdgeStyle;rounded=0;orthogonalLoop=1;jettySize=auto;html=1;" edge="1" parent="1" source="BiqiR-KrkHukfpXaFOAR-47" target="BiqiR-KrkHukfpXaFOAR-48">
          <mxGeometry relative="1" as="geometry" />
        </mxCell>
        <mxCell id="BiqiR-KrkHukfpXaFOAR-47" value="User sorts movement" style="ellipse;whiteSpace=wrap;html=1;" vertex="1" parent="1">
          <mxGeometry x="640" y="540" width="120" height="80" as="geometry" />
        </mxCell>
        <mxCell id="BiqiR-KrkHukfpXaFOAR-51" value="" style="edgeStyle=orthogonalEdgeStyle;rounded=0;orthogonalLoop=1;jettySize=auto;html=1;" edge="1" parent="1" source="BiqiR-KrkHukfpXaFOAR-48" target="BiqiR-KrkHukfpXaFOAR-50">
          <mxGeometry relative="1" as="geometry" />
        </mxCell>
        <mxCell id="BiqiR-KrkHukfpXaFOAR-48" value="Already sorted?" style="rhombus;whiteSpace=wrap;html=1;" vertex="1" parent="1">
          <mxGeometry x="860" y="540" width="80" height="80" as="geometry" />
        </mxCell>
        <mxCell id="BiqiR-KrkHukfpXaFOAR-59" style="edgeStyle=orthogonalEdgeStyle;rounded=0;orthogonalLoop=1;jettySize=auto;html=1;" edge="1" parent="1" source="BiqiR-KrkHukfpXaFOAR-50">
          <mxGeometry relative="1" as="geometry">
            <mxPoint x="900" y="300" as="targetPoint" />
          </mxGeometry>
        </mxCell>
        <mxCell id="BiqiR-KrkHukfpXaFOAR-50" value="Sort movements" style="whiteSpace=wrap;html=1;" vertex="1" parent="1">
          <mxGeometry x="840" y="390" width="120" height="60" as="geometry" />
        </mxCell>
        <mxCell id="BiqiR-KrkHukfpXaFOAR-52" value="&lt;b&gt;No&lt;/b&gt;" style="text;html=1;align=center;verticalAlign=middle;resizable=0;points=[];autosize=1;strokeColor=none;fillColor=none;" vertex="1" parent="1">
          <mxGeometry x="860" y="490" width="40" height="30" as="geometry" />
        </mxCell>
        <mxCell id="BiqiR-KrkHukfpXaFOAR-55" value="" style="endArrow=none;html=1;rounded=0;entryX=1;entryY=0.5;entryDx=0;entryDy=0;" edge="1" parent="1" target="BiqiR-KrkHukfpXaFOAR-42">
          <mxGeometry width="50" height="50" relative="1" as="geometry">
            <mxPoint x="1090" y="700" as="sourcePoint" />
            <mxPoint x="750" y="340" as="targetPoint" />
          </mxGeometry>
        </mxCell>
        <mxCell id="BiqiR-KrkHukfpXaFOAR-56" value="" style="endArrow=none;html=1;rounded=0;" edge="1" parent="1">
          <mxGeometry width="50" height="50" relative="1" as="geometry">
            <mxPoint x="1090" y="700" as="sourcePoint" />
            <mxPoint x="1090" y="300" as="targetPoint" />
          </mxGeometry>
        </mxCell>
        <mxCell id="BiqiR-KrkHukfpXaFOAR-58" value="" style="endArrow=classic;html=1;rounded=0;entryX=1;entryY=0.5;entryDx=0;entryDy=0;" edge="1" parent="1" target="BiqiR-KrkHukfpXaFOAR-13">
          <mxGeometry width="50" height="50" relative="1" as="geometry">
            <mxPoint x="1090" y="300" as="sourcePoint" />
            <mxPoint x="750" y="340" as="targetPoint" />
          </mxGeometry>
        </mxCell>
      </root>
    </mxGraphModel>
  </diagram>
  <diagram id="oS9CZBsAZut6zCnsXTQL" name="Page-5">
    <mxGraphModel dx="1246" dy="1599" grid="1" gridSize="10" guides="1" tooltips="1" connect="1" arrows="1" fold="1" page="1" pageScale="1" pageWidth="827" pageHeight="1169" background="#edf2ff" math="0" shadow="0">
      <root>
        <mxCell id="0" />
        <mxCell id="1" parent="0" />
        <mxCell id="moWZ4to-1RPc9qrdLaBS-1" value="会员" style="whiteSpace=wrap;html=1;align=center;fillColor=#fff2cc;strokeColor=#d6b656;" vertex="1" parent="1">
          <mxGeometry x="300" y="-624" width="100" height="40" as="geometry" />
        </mxCell>
        <mxCell id="moWZ4to-1RPc9qrdLaBS-2" value="会员id" style="ellipse;whiteSpace=wrap;html=1;align=center;fillColor=#d5e8d4;strokeColor=#82b366;" vertex="1" parent="1">
          <mxGeometry x="280" y="-760" width="100" height="40" as="geometry" />
        </mxCell>
        <mxCell id="moWZ4to-1RPc9qrdLaBS-4" value="邮箱" style="ellipse;whiteSpace=wrap;html=1;align=center;fillColor=#d5e8d4;strokeColor=#82b366;" vertex="1" parent="1">
          <mxGeometry x="300" y="-500" width="100" height="40" as="geometry" />
        </mxCell>
        <mxCell id="moWZ4to-1RPc9qrdLaBS-5" value="生日" style="ellipse;whiteSpace=wrap;html=1;align=center;fillColor=#d5e8d4;strokeColor=#82b366;" vertex="1" parent="1">
          <mxGeometry x="100" y="-690" width="100" height="40" as="geometry" />
        </mxCell>
        <mxCell id="moWZ4to-1RPc9qrdLaBS-6" value="用户名" style="ellipse;whiteSpace=wrap;html=1;align=center;fillColor=#d5e8d4;strokeColor=#82b366;" vertex="1" parent="1">
          <mxGeometry x="490" y="-750" width="100" height="40" as="geometry" />
        </mxCell>
        <mxCell id="moWZ4to-1RPc9qrdLaBS-7" value="照片" style="ellipse;whiteSpace=wrap;html=1;align=center;fillColor=#d5e8d4;strokeColor=#82b366;" vertex="1" parent="1">
          <mxGeometry x="110" y="-530" width="100" height="40" as="geometry" />
        </mxCell>
        <mxCell id="moWZ4to-1RPc9qrdLaBS-8" value="密码" style="ellipse;whiteSpace=wrap;html=1;align=center;fillColor=#d5e8d4;strokeColor=#82b366;" vertex="1" parent="1">
          <mxGeometry x="480" y="-560" width="100" height="40" as="geometry" />
        </mxCell>
        <mxCell id="moWZ4to-1RPc9qrdLaBS-9" value="性别" style="ellipse;whiteSpace=wrap;html=1;align=center;fillColor=#d5e8d4;strokeColor=#82b366;" vertex="1" parent="1">
          <mxGeometry x="480" y="-640" width="100" height="40" as="geometry" />
        </mxCell>
        <mxCell id="moWZ4to-1RPc9qrdLaBS-10" value="电话" style="ellipse;whiteSpace=wrap;html=1;align=center;fillColor=#d5e8d4;strokeColor=#82b366;" vertex="1" parent="1">
          <mxGeometry x="130" y="-760" width="100" height="40" as="geometry" />
        </mxCell>
        <mxCell id="moWZ4to-1RPc9qrdLaBS-11" value="上次登陆时间" style="ellipse;whiteSpace=wrap;html=1;align=center;fillColor=#d5e8d4;strokeColor=#82b366;" vertex="1" parent="1">
          <mxGeometry x="100" y="-624" width="100" height="40" as="geometry" />
        </mxCell>
        <mxCell id="moWZ4to-1RPc9qrdLaBS-12" value="注册时间" style="ellipse;whiteSpace=wrap;html=1;align=center;fillColor=#d5e8d4;strokeColor=#82b366;" vertex="1" parent="1">
          <mxGeometry x="390" y="-750" width="100" height="40" as="geometry" />
        </mxCell>
        <mxCell id="moWZ4to-1RPc9qrdLaBS-13" value="" style="endArrow=none;html=1;rounded=0;entryX=0;entryY=1;entryDx=0;entryDy=0;" edge="1" parent="1" source="moWZ4to-1RPc9qrdLaBS-7" target="moWZ4to-1RPc9qrdLaBS-1">
          <mxGeometry relative="1" as="geometry">
            <mxPoint x="330" y="-570" as="sourcePoint" />
            <mxPoint x="490" y="-570" as="targetPoint" />
          </mxGeometry>
        </mxCell>
        <mxCell id="moWZ4to-1RPc9qrdLaBS-14" value="" style="endArrow=none;html=1;rounded=0;exitX=0.5;exitY=0;exitDx=0;exitDy=0;entryX=0.5;entryY=1;entryDx=0;entryDy=0;" edge="1" parent="1" source="moWZ4to-1RPc9qrdLaBS-4" target="moWZ4to-1RPc9qrdLaBS-1">
          <mxGeometry relative="1" as="geometry">
            <mxPoint x="330" y="-570" as="sourcePoint" />
            <mxPoint x="490" y="-570" as="targetPoint" />
          </mxGeometry>
        </mxCell>
        <mxCell id="moWZ4to-1RPc9qrdLaBS-15" value="" style="endArrow=none;html=1;rounded=0;entryX=0.5;entryY=0;entryDx=0;entryDy=0;exitX=1;exitY=0.5;exitDx=0;exitDy=0;" edge="1" parent="1" source="moWZ4to-1RPc9qrdLaBS-1" target="moWZ4to-1RPc9qrdLaBS-8">
          <mxGeometry relative="1" as="geometry">
            <mxPoint x="330" y="-570" as="sourcePoint" />
            <mxPoint x="490" y="-570" as="targetPoint" />
          </mxGeometry>
        </mxCell>
        <mxCell id="moWZ4to-1RPc9qrdLaBS-16" value="" style="endArrow=none;html=1;rounded=0;entryX=0;entryY=0.5;entryDx=0;entryDy=0;exitX=1;exitY=0.5;exitDx=0;exitDy=0;" edge="1" parent="1" source="moWZ4to-1RPc9qrdLaBS-1" target="moWZ4to-1RPc9qrdLaBS-9">
          <mxGeometry relative="1" as="geometry">
            <mxPoint x="330" y="-570" as="sourcePoint" />
            <mxPoint x="490" y="-570" as="targetPoint" />
          </mxGeometry>
        </mxCell>
        <mxCell id="moWZ4to-1RPc9qrdLaBS-17" value="" style="endArrow=none;html=1;rounded=0;exitX=0.5;exitY=1;exitDx=0;exitDy=0;entryX=0.5;entryY=0;entryDx=0;entryDy=0;" edge="1" parent="1" source="moWZ4to-1RPc9qrdLaBS-2" target="moWZ4to-1RPc9qrdLaBS-1">
          <mxGeometry relative="1" as="geometry">
            <mxPoint x="330" y="-570" as="sourcePoint" />
            <mxPoint x="490" y="-570" as="targetPoint" />
          </mxGeometry>
        </mxCell>
        <mxCell id="moWZ4to-1RPc9qrdLaBS-18" value="" style="endArrow=none;html=1;rounded=0;entryX=0.5;entryY=1;entryDx=0;entryDy=0;exitX=0.5;exitY=0;exitDx=0;exitDy=0;" edge="1" parent="1" source="moWZ4to-1RPc9qrdLaBS-1" target="moWZ4to-1RPc9qrdLaBS-12">
          <mxGeometry relative="1" as="geometry">
            <mxPoint x="330" y="-570" as="sourcePoint" />
            <mxPoint x="490" y="-570" as="targetPoint" />
          </mxGeometry>
        </mxCell>
        <mxCell id="moWZ4to-1RPc9qrdLaBS-19" value="" style="endArrow=none;html=1;rounded=0;entryX=0.5;entryY=1;entryDx=0;entryDy=0;exitX=1;exitY=0;exitDx=0;exitDy=0;" edge="1" parent="1" source="moWZ4to-1RPc9qrdLaBS-1" target="moWZ4to-1RPc9qrdLaBS-6">
          <mxGeometry relative="1" as="geometry">
            <mxPoint x="330" y="-570" as="sourcePoint" />
            <mxPoint x="490" y="-570" as="targetPoint" />
          </mxGeometry>
        </mxCell>
        <mxCell id="moWZ4to-1RPc9qrdLaBS-20" value="" style="endArrow=none;html=1;rounded=0;exitX=0.5;exitY=1;exitDx=0;exitDy=0;" edge="1" parent="1" source="moWZ4to-1RPc9qrdLaBS-10">
          <mxGeometry relative="1" as="geometry">
            <mxPoint x="330" y="-570" as="sourcePoint" />
            <mxPoint x="300" y="-630" as="targetPoint" />
          </mxGeometry>
        </mxCell>
        <mxCell id="moWZ4to-1RPc9qrdLaBS-21" value="" style="endArrow=none;html=1;rounded=0;exitX=0.98;exitY=0.7;exitDx=0;exitDy=0;exitPerimeter=0;entryX=0;entryY=0.25;entryDx=0;entryDy=0;" edge="1" parent="1" source="moWZ4to-1RPc9qrdLaBS-5" target="moWZ4to-1RPc9qrdLaBS-1">
          <mxGeometry relative="1" as="geometry">
            <mxPoint x="330" y="-570" as="sourcePoint" />
            <mxPoint x="490" y="-570" as="targetPoint" />
          </mxGeometry>
        </mxCell>
        <mxCell id="moWZ4to-1RPc9qrdLaBS-22" value="" style="endArrow=none;html=1;rounded=0;exitX=1;exitY=0.5;exitDx=0;exitDy=0;entryX=0;entryY=0.5;entryDx=0;entryDy=0;" edge="1" parent="1" source="moWZ4to-1RPc9qrdLaBS-11" target="moWZ4to-1RPc9qrdLaBS-1">
          <mxGeometry relative="1" as="geometry">
            <mxPoint x="310" y="-570" as="sourcePoint" />
            <mxPoint x="490" y="-570" as="targetPoint" />
          </mxGeometry>
        </mxCell>
        <mxCell id="moWZ4to-1RPc9qrdLaBS-24" value="会员地址" style="whiteSpace=wrap;html=1;align=center;fillColor=#fff2cc;strokeColor=#d6b656;" vertex="1" parent="1">
          <mxGeometry x="350" y="-100" width="100" height="40" as="geometry" />
        </mxCell>
        <mxCell id="moWZ4to-1RPc9qrdLaBS-25" value="&lt;span style=&quot;border-bottom: 1px dotted&quot;&gt;地址&lt;/span&gt;" style="ellipse;whiteSpace=wrap;html=1;align=center;fillColor=#d5e8d4;strokeColor=#82b366;" vertex="1" parent="1">
          <mxGeometry x="320" y="40" width="100" height="40" as="geometry" />
        </mxCell>
        <mxCell id="moWZ4to-1RPc9qrdLaBS-26" value="&lt;span style=&quot;border-bottom: 1px dotted&quot;&gt;县&lt;/span&gt;" style="ellipse;whiteSpace=wrap;html=1;align=center;fillColor=#d5e8d4;strokeColor=#82b366;" vertex="1" parent="1">
          <mxGeometry x="540" y="30" width="100" height="40" as="geometry" />
        </mxCell>
        <mxCell id="moWZ4to-1RPc9qrdLaBS-27" value="市" style="ellipse;whiteSpace=wrap;html=1;align=center;fillColor=#d5e8d4;strokeColor=#82b366;" vertex="1" parent="1">
          <mxGeometry x="560" y="-90" width="100" height="50" as="geometry" />
        </mxCell>
        <mxCell id="moWZ4to-1RPc9qrdLaBS-28" value="&lt;span style=&quot;border-bottom: 1px dotted&quot;&gt;省&lt;/span&gt;" style="ellipse;whiteSpace=wrap;html=1;align=center;fillColor=#d5e8d4;strokeColor=#82b366;" vertex="1" parent="1">
          <mxGeometry x="560" y="-210" width="100" height="40" as="geometry" />
        </mxCell>
        <mxCell id="moWZ4to-1RPc9qrdLaBS-29" value="&lt;span style=&quot;border-bottom: 1px dotted&quot;&gt;编号&lt;/span&gt;" style="ellipse;whiteSpace=wrap;html=1;align=center;fillColor=#d5e8d4;strokeColor=#82b366;" vertex="1" parent="1">
          <mxGeometry x="364" y="-220" width="100" height="40" as="geometry" />
        </mxCell>
        <mxCell id="moWZ4to-1RPc9qrdLaBS-30" value="&lt;span style=&quot;border-bottom: 1px dotted&quot;&gt;会员编号&lt;/span&gt;" style="ellipse;whiteSpace=wrap;html=1;align=center;fillColor=#d5e8d4;strokeColor=#82b366;" vertex="1" parent="1">
          <mxGeometry x="200" y="-220" width="100" height="40" as="geometry" />
        </mxCell>
        <mxCell id="moWZ4to-1RPc9qrdLaBS-31" value="&lt;span style=&quot;border-bottom: 1px dotted&quot;&gt;电话&lt;/span&gt;" style="ellipse;whiteSpace=wrap;html=1;align=center;fillColor=#d5e8d4;strokeColor=#82b366;" vertex="1" parent="1">
          <mxGeometry x="190" y="30" width="100" height="40" as="geometry" />
        </mxCell>
        <mxCell id="moWZ4to-1RPc9qrdLaBS-32" value="&lt;span style=&quot;border-bottom: 1px dotted&quot;&gt;收货人姓名&lt;/span&gt;" style="ellipse;whiteSpace=wrap;html=1;align=center;fillColor=#d5e8d4;strokeColor=#82b366;" vertex="1" parent="1">
          <mxGeometry x="130" y="-20" width="100" height="40" as="geometry" />
        </mxCell>
        <mxCell id="moWZ4to-1RPc9qrdLaBS-33" value="&lt;span style=&quot;border-bottom: 1px dotted&quot;&gt;创建时间&lt;/span&gt;" style="ellipse;whiteSpace=wrap;html=1;align=center;fillColor=#d5e8d4;strokeColor=#82b366;" vertex="1" parent="1">
          <mxGeometry x="170" y="-110" width="100" height="40" as="geometry" />
        </mxCell>
        <mxCell id="moWZ4to-1RPc9qrdLaBS-34" value="&lt;span style=&quot;border-bottom: 1px dotted&quot;&gt;修改时间&lt;/span&gt;" style="ellipse;whiteSpace=wrap;html=1;align=center;fillColor=#d5e8d4;strokeColor=#82b366;" vertex="1" parent="1">
          <mxGeometry x="440" y="50" width="100" height="40" as="geometry" />
        </mxCell>
        <mxCell id="moWZ4to-1RPc9qrdLaBS-35" value="" style="endArrow=none;html=1;rounded=0;exitX=0.5;exitY=1;exitDx=0;exitDy=0;entryX=0;entryY=0.25;entryDx=0;entryDy=0;" edge="1" parent="1" source="moWZ4to-1RPc9qrdLaBS-30" target="moWZ4to-1RPc9qrdLaBS-24">
          <mxGeometry relative="1" as="geometry">
            <mxPoint x="250" y="-170" as="sourcePoint" />
            <mxPoint x="510" y="-70" as="targetPoint" />
          </mxGeometry>
        </mxCell>
        <mxCell id="moWZ4to-1RPc9qrdLaBS-36" value="" style="endArrow=none;html=1;rounded=0;exitX=0.98;exitY=0.35;exitDx=0;exitDy=0;exitPerimeter=0;entryX=0.25;entryY=1;entryDx=0;entryDy=0;" edge="1" parent="1" source="moWZ4to-1RPc9qrdLaBS-32" target="moWZ4to-1RPc9qrdLaBS-24">
          <mxGeometry relative="1" as="geometry">
            <mxPoint x="350" y="-70" as="sourcePoint" />
            <mxPoint x="380" y="-50" as="targetPoint" />
          </mxGeometry>
        </mxCell>
        <mxCell id="moWZ4to-1RPc9qrdLaBS-37" value="" style="endArrow=none;html=1;rounded=0;exitX=1;exitY=0.5;exitDx=0;exitDy=0;entryX=0;entryY=0.5;entryDx=0;entryDy=0;" edge="1" parent="1" source="moWZ4to-1RPc9qrdLaBS-33" target="moWZ4to-1RPc9qrdLaBS-24">
          <mxGeometry relative="1" as="geometry">
            <mxPoint x="350" y="-70" as="sourcePoint" />
            <mxPoint x="510" y="-70" as="targetPoint" />
          </mxGeometry>
        </mxCell>
        <mxCell id="moWZ4to-1RPc9qrdLaBS-38" value="" style="endArrow=none;html=1;rounded=0;entryX=0.5;entryY=1;entryDx=0;entryDy=0;" edge="1" parent="1" source="moWZ4to-1RPc9qrdLaBS-31" target="moWZ4to-1RPc9qrdLaBS-24">
          <mxGeometry relative="1" as="geometry">
            <mxPoint x="350" y="-70" as="sourcePoint" />
            <mxPoint x="510" y="-70" as="targetPoint" />
          </mxGeometry>
        </mxCell>
        <mxCell id="moWZ4to-1RPc9qrdLaBS-39" value="" style="endArrow=none;html=1;rounded=0;entryX=0.5;entryY=0;entryDx=0;entryDy=0;exitX=0.5;exitY=1;exitDx=0;exitDy=0;" edge="1" parent="1" source="moWZ4to-1RPc9qrdLaBS-24" target="moWZ4to-1RPc9qrdLaBS-25">
          <mxGeometry relative="1" as="geometry">
            <mxPoint x="350" y="-70" as="sourcePoint" />
            <mxPoint x="510" y="-70" as="targetPoint" />
          </mxGeometry>
        </mxCell>
        <mxCell id="moWZ4to-1RPc9qrdLaBS-40" value="" style="endArrow=none;html=1;rounded=0;exitX=0.5;exitY=0;exitDx=0;exitDy=0;entryX=0.9;entryY=1;entryDx=0;entryDy=0;entryPerimeter=0;" edge="1" parent="1" source="moWZ4to-1RPc9qrdLaBS-34" target="moWZ4to-1RPc9qrdLaBS-24">
          <mxGeometry relative="1" as="geometry">
            <mxPoint x="350" y="-70" as="sourcePoint" />
            <mxPoint x="440" y="-50" as="targetPoint" />
          </mxGeometry>
        </mxCell>
        <mxCell id="moWZ4to-1RPc9qrdLaBS-41" value="" style="endArrow=none;html=1;rounded=0;entryX=0.5;entryY=1;entryDx=0;entryDy=0;exitX=0.5;exitY=0;exitDx=0;exitDy=0;" edge="1" parent="1" source="moWZ4to-1RPc9qrdLaBS-24" target="moWZ4to-1RPc9qrdLaBS-29">
          <mxGeometry relative="1" as="geometry">
            <mxPoint x="350" y="-70" as="sourcePoint" />
            <mxPoint x="440" y="-150" as="targetPoint" />
          </mxGeometry>
        </mxCell>
        <mxCell id="moWZ4to-1RPc9qrdLaBS-42" value="" style="endArrow=none;html=1;rounded=0;entryX=0.5;entryY=1;entryDx=0;entryDy=0;exitX=1;exitY=0.5;exitDx=0;exitDy=0;" edge="1" parent="1" source="moWZ4to-1RPc9qrdLaBS-24" target="moWZ4to-1RPc9qrdLaBS-28">
          <mxGeometry relative="1" as="geometry">
            <mxPoint x="350" y="-70" as="sourcePoint" />
            <mxPoint x="510" y="-70" as="targetPoint" />
          </mxGeometry>
        </mxCell>
        <mxCell id="moWZ4to-1RPc9qrdLaBS-43" value="" style="endArrow=none;html=1;rounded=0;entryX=0;entryY=0.5;entryDx=0;entryDy=0;exitX=1;exitY=0.75;exitDx=0;exitDy=0;" edge="1" parent="1" source="moWZ4to-1RPc9qrdLaBS-24" target="moWZ4to-1RPc9qrdLaBS-27">
          <mxGeometry relative="1" as="geometry">
            <mxPoint x="350" y="-70" as="sourcePoint" />
            <mxPoint x="510" y="-70" as="targetPoint" />
          </mxGeometry>
        </mxCell>
        <mxCell id="moWZ4to-1RPc9qrdLaBS-44" value="" style="endArrow=none;html=1;rounded=0;exitX=0.44;exitY=-0.05;exitDx=0;exitDy=0;exitPerimeter=0;entryX=1;entryY=1;entryDx=0;entryDy=0;" edge="1" parent="1" source="moWZ4to-1RPc9qrdLaBS-26" target="moWZ4to-1RPc9qrdLaBS-24">
          <mxGeometry relative="1" as="geometry">
            <mxPoint x="350" y="-70" as="sourcePoint" />
            <mxPoint x="510" y="-70" as="targetPoint" />
          </mxGeometry>
        </mxCell>
      </root>
    </mxGraphModel>
  </diagram>
</mxfile>
